<svg width="22" height="25" viewBox="0 0 22 25" fill="none" xmlns="http://www.w3.org/2000/svg">
<path d="M10.68 10.6541L10.1839 10.7162L10.68 10.6541ZM13.9191 5.11571L13.4289 5.214L13.4289 5.21403L13.9191 5.11571ZM16.3625 11.5769V11.0769H15.8489L15.8627 11.5903L16.3625 11.5769ZM19.1389 11.5769L19.6387 11.5903L19.6525 11.0769H19.1389V11.5769ZM16.6854 23.6016L17.1853 23.5882V23.5882L16.6854 23.6016ZM18.816 23.6016L18.3161 23.5882V23.5882L18.816 23.6016ZM15.3347 5.95688L14.9586 5.62734V5.62734L15.3347 5.95688ZM20.8601 13.8846L20.3698 13.9829C20.7874 16.0656 19.7638 18.4435 17.8716 20.3392C15.988 22.2262 13.3332 23.5385 10.68 23.5385V24.0385V24.5385C13.6492 24.5385 16.5471 23.0816 18.5793 21.0457C20.6029 19.0183 21.8582 16.3193 21.3503 13.7863L20.8601 13.8846ZM10.68 24.0385V23.5385C5.33268 23.5385 1 19.2151 1 13.8846H0.5H0C0 19.7698 4.78283 24.5385 10.68 24.5385V24.0385ZM0.5 13.8846H1C1 8.55415 5.33268 4.23076 10.68 4.23076V3.73076V3.23076C4.78283 3.23076 0 7.99944 0 13.8846H0.5ZM10.68 10.6541L10.1839 10.7162C10.2562 11.2933 10.5021 11.7437 10.9048 12.0578C11.2908 12.359 11.7763 12.5001 12.2724 12.5634C13.2475 12.6879 14.4944 12.5327 15.645 12.4207C16.844 12.304 17.9605 12.23 18.8274 12.438C19.2502 12.5395 19.5842 12.702 19.8334 12.9363C20.0782 13.1664 20.2719 13.4944 20.3698 13.9829L20.8601 13.8846L21.3503 13.7863C21.2169 13.1209 20.9334 12.5978 20.5184 12.2077C20.1078 11.8218 19.5996 11.5949 19.0608 11.4656C18.0045 11.2121 16.7206 11.3113 15.5481 11.4254C14.3272 11.5443 13.2315 11.6777 12.399 11.5715C11.9914 11.5194 11.7069 11.4154 11.5199 11.2695C11.3496 11.1365 11.2195 10.9379 11.1762 10.5919L10.68 10.6541ZM10.68 3.73076V4.23076C11.4094 4.23076 12.0895 4.27505 12.6041 4.443C13.1024 4.60559 13.3556 4.84865 13.4289 5.214L13.9191 5.11571L14.4094 5.01742C14.2391 4.16793 13.6074 3.71851 12.9144 3.49234C12.2377 3.27152 11.42 3.23076 10.68 3.23076V3.73076ZM13.9191 5.11571L13.4289 5.21403C13.5132 5.63445 13.4084 6.06203 13.1492 6.52197C12.8868 6.98768 12.489 7.44552 12.0491 7.90595C11.6287 8.34595 11.1425 8.81406 10.7956 9.23331C10.618 9.44805 10.4541 9.6757 10.3403 9.91106C10.2262 10.1468 10.147 10.4218 10.1839 10.7162L10.68 10.6541L11.1762 10.5919C11.1714 10.5538 11.1766 10.4784 11.2404 10.3466C11.3044 10.2144 11.4118 10.0573 11.5661 9.87075C11.8833 9.48738 12.3041 9.08666 12.7721 8.59676C13.2207 8.12729 13.6928 7.59414 14.0204 7.01293C14.3512 6.42593 14.5564 5.75065 14.4094 5.0174L13.9191 5.11571ZM7.10793 9.26922H6.60793C6.60793 9.75657 6.21149 10.1538 5.71975 10.1538V10.6538V11.1538C6.76135 11.1538 7.60793 10.3113 7.60793 9.26922H7.10793ZM5.71975 10.6538V10.1538C5.228 10.1538 4.83156 9.75657 4.83156 9.26922H4.33156H3.83156C3.83156 10.3113 4.67815 11.1538 5.71975 11.1538V10.6538ZM4.33156 9.26922H4.83156C4.83156 8.78188 5.228 8.38461 5.71975 8.38461V7.88461V7.38461C4.67815 7.38461 3.83156 8.22717 3.83156 9.26922H4.33156ZM5.71975 7.88461V8.38461C6.21149 8.38461 6.60793 8.78188 6.60793 9.26922H7.10793H7.60793C7.60793 8.22717 6.76135 7.38461 5.71975 7.38461V7.88461ZM5.25702 13.8846H4.75702C4.75702 14.372 4.36058 14.7692 3.86883 14.7692V15.2692V15.7692C4.91043 15.7692 5.75702 14.9267 5.75702 13.8846H5.25702ZM3.86883 15.2692V14.7692C3.37709 14.7692 2.98065 14.372 2.98065 13.8846H2.48065H1.98065C1.98065 14.9267 2.82723 15.7692 3.86883 15.7692V15.2692ZM2.48065 13.8846H2.98065C2.98065 13.3973 3.37709 13 3.86883 13V12.5V12C2.82723 12 1.98065 12.8426 1.98065 13.8846H2.48065ZM3.86883 12.5V13C4.36058 13 4.75702 13.3973 4.75702 13.8846H5.25702H5.75702C5.75702 12.8426 4.91043 12 3.86883 12V12.5ZM7.10793 18.5H6.60793C6.60793 18.9873 6.21149 19.3846 5.71975 19.3846V19.8846V20.3846C6.76135 20.3846 7.60793 19.5421 7.60793 18.5H7.10793ZM5.71975 19.8846V19.3846C5.228 19.3846 4.83156 18.9873 4.83156 18.5H4.33156H3.83156C3.83156 19.5421 4.67815 20.3846 5.71975 20.3846V19.8846ZM4.33156 18.5H4.83156C4.83156 18.0127 5.228 17.6154 5.71975 17.6154V17.1154V16.6154C4.67815 16.6154 3.83156 17.4579 3.83156 18.5H4.33156ZM5.71975 17.1154V17.6154C6.21149 17.6154 6.60793 18.0127 6.60793 18.5H7.10793H7.60793C7.60793 17.4579 6.76135 16.6154 5.71975 16.6154V17.1154ZM11.7352 20.3462H11.2352C11.2352 20.8335 10.8388 21.2308 10.347 21.2308V21.7308V22.2308C11.3886 22.2308 12.2352 21.3882 12.2352 20.3462H11.7352ZM10.347 21.7308V21.2308C9.85529 21.2308 9.45885 20.8335 9.45885 20.3462H8.95885H8.45885C8.45885 21.3882 9.30544 22.2308 10.347 22.2308V21.7308ZM8.95885 20.3462H9.45885C9.45885 19.8588 9.85529 19.4615 10.347 19.4615V18.9615V18.4615C9.30543 18.4615 8.45885 19.3041 8.45885 20.3462H8.95885ZM10.347 18.9615V19.4615C10.8388 19.4615 11.2352 19.8588 11.2352 20.3462H11.7352H12.2352C12.2352 19.3041 11.3886 18.4615 10.347 18.4615V18.9615ZM16.3625 19.4231H15.8625C15.8625 19.9104 15.4661 20.3077 14.9743 20.3077V20.8077V21.3077C16.0159 21.3077 16.8625 20.4651 16.8625 19.4231H16.3625ZM14.9743 20.8077V20.3077C14.4826 20.3077 14.0861 19.9104 14.0861 19.4231H13.5861H13.0861C13.0861 20.4651 13.9327 21.3077 14.9743 21.3077V20.8077ZM13.5861 19.4231H14.0861C14.0861 18.9357 14.4826 18.5385 14.9743 18.5385V18.0385V17.5385C13.9327 17.5385 13.0861 18.381 13.0861 19.4231H13.5861ZM14.9743 18.0385V18.5385C15.4661 18.5385 15.8625 18.9357 15.8625 19.4231H16.3625H16.8625C16.8625 18.381 16.0159 17.5385 14.9743 17.5385V18.0385ZM16.3625 11.5769V12.0769H19.1389V11.5769V11.0769H16.3625V11.5769ZM19.1389 11.5769L18.6391 11.5635L18.3161 23.5882L18.816 23.6016L19.3158 23.6151L19.6387 11.5903L19.1389 11.5769ZM17.8908 24.5V24H17.6106V24.5V25H17.8908V24.5ZM16.6854 23.6016L17.1853 23.5882L16.8623 11.5635L16.3625 11.5769L15.8627 11.5903L16.1856 23.6151L16.6854 23.6016ZM17.6106 24.5V24C17.3788 24 17.1914 23.8162 17.1853 23.5882L16.6854 23.6016L16.1856 23.6151C16.2063 24.387 16.8393 25 17.6106 25V24.5ZM18.816 23.6016L18.3161 23.5882C18.31 23.8162 18.1226 24 17.8908 24V24.5V25C18.6621 25 19.2951 24.387 19.3158 23.6151L18.816 23.6016ZM21.5 8.14489H21C21 8.89272 20.6309 9.5952 20.0333 10.1217C19.4344 10.6494 18.6365 10.9711 17.8463 10.9711V11.4711V11.9711C18.8979 11.9711 19.9268 11.5483 20.6943 10.8721C21.4631 10.1947 22 9.2341 22 8.14489H21.5ZM17.8463 11.4711V10.9711C16.2795 10.9711 15.0116 9.70462 15.0116 8.14494H14.5116H14.0116C14.0116 10.2593 15.7297 11.9711 17.8463 11.9711V11.4711ZM14.5116 8.14494H15.0116C15.0116 7.4331 15.2749 6.78369 15.7107 6.28642L15.3347 5.95688L14.9586 5.62734C14.3694 6.29975 14.0116 7.18117 14.0116 8.14494H14.5116ZM15.3347 5.95688L15.7107 6.28642C17.7677 3.9392 17.8731 2.28334 17.48 1.21589C17.2935 0.709645 17.0085 0.388 16.9179 0.274319C16.907 0.260656 16.9054 0.258063 16.9076 0.261207C16.909 0.263185 16.9144 0.271136 16.9215 0.283499C16.9276 0.294292 16.9417 0.320221 16.9543 0.357067C16.9699 0.402825 17.051 0.690226 16.7943 0.894556C16.6999 0.969713 16.6046 0.989408 16.5598 0.995623C16.5116 1.00232 16.4745 0.999719 16.4587 0.998271C16.4159 0.994329 16.3989 0.98487 16.4642 1.00583C16.5124 1.02128 16.5786 1.04411 16.6753 1.07737L16.8379 0.604543L17.0005 0.131718C16.9093 0.100362 16.8304 0.0730854 16.7696 0.0535935C16.726 0.0396152 16.6363 0.010379 16.5503 0.00247332C16.5238 3.3617e-05 16.4777 -0.00256568 16.4223 0.00512275C16.3704 0.0123334 16.2697 0.0340229 16.1715 0.112182C15.9073 0.322517 15.9874 0.619959 16.0078 0.679871C16.0341 0.75676 16.0739 0.813792 16.0855 0.830624C16.1033 0.856235 16.1222 0.880306 16.1359 0.897585C16.2426 1.03144 16.4199 1.2311 16.5416 1.56151C16.7647 2.16735 16.8701 3.44613 14.9586 5.62734L15.3347 5.95688ZM16.8379 0.604543L16.6753 1.07737C16.9636 1.1765 17.3861 1.43521 17.8716 1.85935C18.3491 2.27639 18.8592 2.82871 19.3267 3.47902C20.2663 4.78613 21 6.4414 21 8.14489H21.5H22C22 6.16469 21.1543 4.30826 20.1387 2.89535C19.6285 2.18565 19.0672 1.57589 18.5295 1.10623C18 0.643661 17.4639 0.291058 17.0005 0.131718L16.8379 0.604543Z" fill="#3A3A3A"/>
</svg>
