<svg width="21" height="21" viewBox="0 0 21 21" fill="none" xmlns="http://www.w3.org/2000/svg">
<path d="M8.04167 19.6335H2.75C1.64543 19.6335 0.75 18.738 0.75 17.6335V10.5346C0.75 10.0228 0.946154 9.53058 1.29809 9.15909L8.67309 1.37436C9.46195 0.541684 10.788 0.541683 11.5769 1.37436L18.9519 9.15909C19.3038 9.53058 19.5 10.0228 19.5 10.5346V17.6335C19.5 18.738 18.6046 19.6335 17.5 19.6335H12.2083M8.04167 19.6335V13.8835C8.04167 13.6073 8.26552 13.3835 8.54167 13.3835H11.7083C11.9845 13.3835 12.2083 13.6073 12.2083 13.8835V19.6335M8.04167 19.6335H12.2083" stroke="#404040" stroke-width="1.5"/>
</svg>
